<?xml version="1.0" standalone="no"?><!DOCTYPE svg PUBLIC "-//W3C//DTD SVG 1.1//EN" "http://www.w3.org/Graphics/SVG/1.1/DTD/svg11.dtd"><svg t="1595488236644" class="icon" viewBox="0 0 1024 1024" version="1.1" xmlns="http://www.w3.org/2000/svg" p-id="1670" xmlns:xlink="http://www.w3.org/1999/xlink" width="16" height="16"><defs><style type="text/css"></style></defs><path d="M872.228571 21.430857l130.340572 130.340572a73.142857 73.142857 0 0 1 0 103.460571l-52.187429 52.187429-206.848-206.848-51.931428 51.931428 206.811428 206.848-158.098285 158.098286 272.786285 272.749714L779.300571 1024l-272.749714-272.786286-170.24 170.276572a73.142857 73.142857 0 0 1-43.373714 20.918857l-238.738286 27.428571 27.392-238.774857a73.142857 73.142857 0 0 1 20.918857-43.373714l38.144-38.107429 129.865143 129.865143 51.931429-51.931428-129.828572-129.901715 80.128-80.201143L0 244.699429 233.801143 10.898286l272.713143 272.749714 262.253714-262.217143a73.142857 73.142857 0 0 1 103.460571 0zM688.384 569.417143l-129.901714 129.865143 13.019428 12.982857 51.931429-51.931429 51.931428 51.931429-51.931428 51.931428 51.931428 52.004572 77.970286-77.933714 51.931429 51.931428-77.897143 77.933714 51.931428 51.931429 129.901715-129.828571-220.818286-220.818286zM233.801143 114.834286L103.862857 244.662857l51.931429 51.968 51.968-51.931428 51.968 51.931428-51.931429 51.968 51.931429 51.931429 77.933714-77.897143 51.931429 51.931428-77.897143 77.933715 12.946285 12.982857 129.901715-129.865143-220.781715-220.818286z" fill="#ffffff" p-id="1671"></path></svg>