<?xml version="1.0" encoding="utf-8"?>
<!-- Generator: Adobe Illustrator 22.1.0, SVG Export Plug-In . SVG Version: 6.00 Build 0)  -->
<svg version="1.1" xmlns="http://www.w3.org/2000/svg" xmlns:xlink="http://www.w3.org/1999/xlink" x="0px" y="0px"
	 viewBox="0 0 24 24" style="enable-background:new 0 0 24 24;" xml:space="preserve">
<style type="text/css">
	.st0{fill:#FFFFFF;}
</style>
<g id="图层_2">
	<path class="st0" d="M2.1,13H0c0.5,5.8,5.1,10.5,11,10.9v-2C6.3,21.5,2.5,17.7,2.1,13z"/>
	<path class="st0" d="M2.1,11C2.5,6.3,6.3,2.5,11,2.1v-2C5.2,0.5,0.5,5.2,0,11H2.1z"/>
	<path class="st0" d="M21.9,11h2C23.5,5.2,18.8,0.5,13,0.1v2C17.7,2.5,21.5,6.3,21.9,11z"/>
	<path class="st0" d="M21.9,13c-0.5,4.7-4.2,8.5-8.9,8.9v2c5.8-0.5,10.5-5.1,11-10.9H21.9z"/>
</g>
<g id="图层_3">
	<polygon class="st0" points="5,9 8,8 10.2,10.2 14,6 19,8.5 19,15.5 15,14 11,17 8,15 5,17 	"/>
</g>
</svg>
