<?xml version="1.0" standalone="no"?><!DOCTYPE svg PUBLIC "-//W3C//DTD SVG 1.1//EN" "http://www.w3.org/Graphics/SVG/1.1/DTD/svg11.dtd"><svg t="1594701564276" class="icon" viewBox="0 0 1024 1024" version="1.1" xmlns="http://www.w3.org/2000/svg" p-id="24877" xmlns:xlink="http://www.w3.org/1999/xlink" width="32" height="32"><defs><style type="text/css"></style></defs><path d="M511.808 990.592c264.224 0 479.776-214.4 479.776-479.104 0-264.672-215.552-479.072-479.776-479.072C247.52 32.416 32 247.616 32 511.488c0 263.84 215.52 479.104 479.808 479.104z m0-890.56c227.072 0 412.032 184.704 412.032 411.456 0 226.784-184.96 411.456-412.032 411.456-227.104 0-412.096-184.672-412.096-411.456 0-226.752 184.96-411.456 412.096-411.456z" p-id="24878" fill="#ffffff"></path><path d="M394.016 757.92c6.592 6.72 14.944 10.08 24.096 10.08 8.32 0 17.504-3.36 24.128-10.08l219.776-221.6c6.656-6.688 9.984-15.072 9.984-24.32 0-9.28-3.328-17.632-9.984-24.32L442.24 266.08a33.92 33.92 0 0 0-48.224 0 34.624 34.624 0 0 0 0 48.672L589.568 512l-195.552 197.248a34.624 34.624 0 0 0 0 48.704z" p-id="24879" fill="#ffffff"></path></svg>