<?xml version="1.0" standalone="no"?>
<!DOCTYPE svg PUBLIC "-//W3C//DTD SVG 20010904//EN"
 "http://www.w3.org/TR/2001/REC-SVG-20010904/DTD/svg10.dtd">
<svg version="1.0" xmlns="http://www.w3.org/2000/svg"
 width="160.000000pt" height="160.000000pt" viewBox="0 0 160.000000 160.000000"
 preserveAspectRatio="xMidYMid meet">

<g transform="translate(0.000000,160.000000) scale(0.100000,-0.100000)"
fill="#000000" stroke="none">
<path d="M294 1035 c-17 -41 -44 -142 -44 -166 0 -24 108 -123 168 -153 l52
-26 -7 45 -6 45 95 0 95 0 7 -80 c5 -57 11 -80 21 -80 10 0 12 17 8 80 l-6 81
94 -3 94 -3 3 -77 3 -78 -83 -1 -83 -1 65 -14 c36 -8 114 -14 174 -14 77 0
112 -4 118 -12 6 -10 11 -11 28 0 24 15 147 16 152 2 3 -11 119 2 191 21 52
14 60 40 61 189 1 114 -2 132 -28 203 l-28 77 -121 0 c-114 0 -119 -1 -105
-17 9 -10 21 -28 27 -40 12 -23 11 -23 -68 -23 l-79 0 -7 40 c-4 26 -12 40
-22 40 -9 0 -13 -7 -9 -17 2 -10 7 -28 11 -40 6 -23 5 -23 -79 -23 l-86 0 0
40 c0 29 -4 40 -15 40 -11 0 -15 -11 -15 -40 l0 -40 -86 0 -87 0 7 41 c8 53
-15 49 -27 -4 l-9 -37 -79 0 c-79 0 -80 0 -68 23 6 12 18 30 27 40 14 16 8 17
-112 17 l-127 0 -15 -35z m362 -127 c-3 -29 -6 -65 -6 -80 l0 -28 -95 0 -95 0
0 28 c0 16 7 52 15 80 l16 52 86 0 86 0 -7 -52z m212 -25 l-3 -78 -92 -3 -93
-3 0 49 c0 27 3 64 6 81 l7 31 89 0 89 0 -3 -77z m214 7 c4 -36 6 -71 3 -77
-3 -9 -32 -13 -95 -13 l-90 0 0 80 0 81 88 -3 87 -3 7 -65z m203 18 c8 -28 15
-64 15 -80 l0 -28 -90 0 c-64 0 -92 4 -95 13 -2 6 -6 42 -8 80 l-5 67 84 0 83
0 16 -52z m-203 -188 c-5 -104 -1 -100 -97 -100 l-85 0 0 80 0 81 93 -3 92 -3
-3 -55z m218 38 c0 -12 -7 -48 -16 -80 l-17 -58 -82 0 -83 0 5 68 c2 37 6 73
8 80 3 8 31 12 95 12 86 0 90 -1 90 -22z"/>
<path d="M451 344 c53 -56 139 -108 230 -139 115 -39 258 -41 369 -5 l75 24
-69 7 c-78 9 -204 37 -211 49 -2 4 21 3 53 -2 70 -12 263 -4 316 12 21 6 57
29 80 51 l41 38 -459 1 -460 0 35 -36z"/>
</g>
</svg>
