<?xml version="1.0" standalone="no"?><!DOCTYPE svg PUBLIC "-//W3C//DTD SVG 1.1//EN" "http://www.w3.org/Graphics/SVG/1.1/DTD/svg11.dtd"><svg t="1593179133206" class="icon" viewBox="0 0 1024 1024" version="1.1" xmlns="http://www.w3.org/2000/svg" p-id="6714" xmlns:xlink="http://www.w3.org/1999/xlink" width="16" height="16"><defs><style type="text/css"></style></defs><path d="M486.400051 1023.997952c-129.94534 0-252.057096-50.585499-343.960912-142.438115S0.001024 667.544265 0.001024 537.650125c0-129.94534 50.585499-252.057096 142.438115-343.960912S356.454711 51.199898 486.400051 51.199898c129.94534 0 252.057096 50.585499 343.960912 142.489315S972.799078 407.704785 972.799078 537.650125s-50.585499 252.057096-142.438115 343.909712A483.224634 483.224634 0 0 1 486.400051 1023.997952z m0-921.598157C246.426131 102.399795 51.200922 297.625005 51.200922 537.598925S246.426131 972.798054 486.400051 972.798054s435.19913-195.22521 435.19913-435.199129S726.373971 102.399795 486.400051 102.399795z" p-id="6715"></path><path d="M332.800358 409.599181C290.458043 409.599181 256.000512 375.14165 256.000512 332.799334S290.458043 255.999488 332.800358 255.999488 409.600205 290.457019 409.600205 332.799334 375.142674 409.599181 332.800358 409.599181z m0-102.399795a25.599949 25.599949 0 1 0 0 51.199897 25.599949 25.599949 0 0 0 0-51.199897zM639.999744 409.599181c-42.342315 0-76.799846-34.457531-76.799846-76.799847S597.657429 255.999488 639.999744 255.999488s76.799846 34.457531 76.799846 76.799846S682.342059 409.599181 639.999744 409.599181z m0-102.399795a25.599949 25.599949 0 1 0 0 51.199897 25.599949 25.599949 0 0 0 0-51.199897zM281.549261 767.998464a25.599949 25.599949 0 0 1-20.428759-40.959918 284.108232 284.108232 0 0 1 97.331005-81.919836c39.83352-20.377559 82.892634-30.668739 127.948544-30.668739s88.115024 10.342379 127.948544 30.668739a284.108232 284.108232 0 0 1 97.331006 81.919836 25.599949 25.599949 0 0 1-40.908719 30.771138c-43.980712-58.572683-111.206178-92.159816-184.370831-92.159815s-140.338919 33.587133-184.370831 92.159815a25.497549 25.497549 0 0 1-20.479959 10.23998z" p-id="6716"></path></svg>