<?xml version="1.0" standalone="no"?><!DOCTYPE svg PUBLIC "-//W3C//DTD SVG 1.1//EN" "http://www.w3.org/Graphics/SVG/1.1/DTD/svg11.dtd"><svg t="1594172262885" class="icon" viewBox="0 0 1024 1024" version="1.1" xmlns="http://www.w3.org/2000/svg" p-id="24070" xmlns:xlink="http://www.w3.org/1999/xlink" width="32" height="32"><defs><style type="text/css"></style></defs><path d="M573.44 962.56s-5.12 0 0 0l-102.4-56.32v-5.12c10.24-20.48 97.28-204.8 87.04-199.68-10.24 10.24-71.68 76.8-117.76 143.36l-25.6 35.84s-102.4-71.68-138.24-112.64c20.48-30.72 133.12-174.08 133.12-174.08l-189.44 112.64c-10.24-10.24-71.68-76.8-92.16-112.64 15.36-15.36 117.76-102.4 117.76-102.4l-143.36 51.2-51.2-97.28v-5.12c25.6-5.12 235.52-46.08 332.8-117.76h10.24l291.84 291.84s5.12 5.12 0 10.24c-10.24 25.6-92.16 158.72-112.64 337.92z m378.88-798.72L768 348.16v5.12c40.96 71.68 40.96 153.6-20.48 215.04h-5.12L450.56 276.48v-5.12c61.44-61.44 143.36-61.44 215.04-20.48h5.12l184.32-184.32c25.6-25.6 71.68-25.6 97.28 0s25.6 71.68 0 97.28z" p-id="24071" fill="#ffffff"></path></svg>