<?xml version="1.0" standalone="no"?><!DOCTYPE svg PUBLIC "-//W3C//DTD SVG 1.1//EN" "http://www.w3.org/Graphics/SVG/1.1/DTD/svg11.dtd"><svg t="1594172456923" class="icon" viewBox="0 0 1024 1024" version="1.1" xmlns="http://www.w3.org/2000/svg" p-id="28072" xmlns:xlink="http://www.w3.org/1999/xlink" width="32" height="32"><defs><style type="text/css"></style></defs><path d="M102.28 692.465l4.156 0.482a18.07 18.07 0 0 1 13.432 13.432l0.482 4.157-0.06 192.993 192.934 0.06a18.07 18.07 0 0 1 17.588 13.915l0.482 4.216v54.032a18.07 18.07 0 0 1-13.914 17.588l-4.156 0.542H48.188A18.07 18.07 0 0 1 30.6 979.968l-0.482-4.156V710.536a18.07 18.07 0 0 1 13.914-17.59l4.156-0.481h54.092z m873.532 0l4.156 0.482a18.07 18.07 0 0 1 13.432 13.432l0.482 4.157v265.276l-0.482 4.156a18.07 18.07 0 0 1-13.432 13.432l-4.156 0.482H710.776l-4.156-0.482a18.07 18.07 0 0 1-13.432-13.432l-0.482-4.156V921.72l0.482-4.156a18.07 18.07 0 0 1 13.432-13.432l4.156-0.482H903.71V710.536l0.422-4.157a18.07 18.07 0 0 1 9.637-12.047l3.795-1.385 4.217-0.482h54.03zM313.224 30.118a18.07 18.07 0 0 1 18.07 18.07v54.092a18.07 18.07 0 0 1-18.07 18.07H120.29v193.114a18.07 18.07 0 0 1-13.854 17.59l-4.217 0.481H48.19a18.07 18.07 0 0 1-18.071-18.07V48.187a18.07 18.07 0 0 1 18.07-18.07h265.036z m662.588 0A18.07 18.07 0 0 1 993.4 44.032l0.482 4.156v265.276a18.07 18.07 0 0 1-13.914 17.59l-4.156 0.481H921.72l-4.156-0.482a18.07 18.07 0 0 1-13.432-13.432l-0.482-4.157 0.06-192.993-192.934-0.12a18.07 18.07 0 0 1-17.588-13.915l-0.482-4.217V48.19a18.07 18.07 0 0 1 13.914-17.59l4.156-0.481h265.036z" p-id="28073" fill="#ffffff"></path></svg>