<?xml version="1.0" standalone="no"?><!DOCTYPE svg PUBLIC "-//W3C//DTD SVG 1.1//EN" "http://www.w3.org/Graphics/SVG/1.1/DTD/svg11.dtd"><svg t="1594172580508" class="icon" viewBox="0 0 1024 1024" version="1.1" xmlns="http://www.w3.org/2000/svg" p-id="29001" xmlns:xlink="http://www.w3.org/1999/xlink" width="32" height="32"><defs><style type="text/css"></style></defs><path d="M810.666667 938.666667H213.333333c-72.533333 0-128-55.466667-128-128V213.333333c0-72.533333 55.466667-128 128-128h597.333334c72.533333 0 128 55.466667 128 128v597.333334c0 72.533333-55.466667 128-128 128zM213.333333 170.666667c-25.6 0-42.666667 17.066667-42.666666 42.666666v597.333334c0 25.6 17.066667 42.666667 42.666666 42.666666h597.333334c25.6 0 42.666667-17.066667 42.666666-42.666666V213.333333c0-25.6-17.066667-42.666667-42.666666-42.666666H213.333333z" p-id="29002" fill="#ffffff"></path><path d="M896 426.666667H128c-25.6 0-42.666667-17.066667-42.666667-42.666667s17.066667-42.666667 42.666667-42.666667h768c25.6 0 42.666667 17.066667 42.666667 42.666667s-17.066667 42.666667-42.666667 42.666667z" p-id="29003" fill="#ffffff"></path><path d="M384 938.666667c-25.6 0-42.666667-17.066667-42.666667-42.666667V384c0-25.6 17.066667-42.666667 42.666667-42.666667s42.666667 17.066667 42.666667 42.666667v512c0 25.6-17.066667 42.666667-42.666667 42.666667z" p-id="29004" fill="#ffffff"></path></svg>