<?xml version="1.0" standalone="no"?><!DOCTYPE svg PUBLIC "-//W3C//DTD SVG 1.1//EN" "http://www.w3.org/Graphics/SVG/1.1/DTD/svg11.dtd"><svg t="1594282961811" class="icon" viewBox="0 0 1024 1024" version="1.1" xmlns="http://www.w3.org/2000/svg" p-id="24563" xmlns:xlink="http://www.w3.org/1999/xlink" width="32" height="32"><defs><style type="text/css"></style></defs><path d="M68.004346 256.953432c8.242858-14.437801 28.517217-16.38332 40.190332-4.761402l37.988824 38.040021a25.189355 25.189355 0 0 1 4.147028 30.001955c-43.825381 82.684569-60.771878 181.752457-36.86247 286.196123 34.148983 149.804983 154.259198 270.017594 304.064181 304.115379 66.198853 15.512956 135.162391 14.335405 200.798067-3.276664l-47.204441-47.255639a25.701333 25.701333 0 0 1 0-36.248095l36.196898-36.248096a25.598938 25.598938 0 0 1 36.196897 0l126.817138 126.868335 1.382342 1.433541c11.775511 11.775511 9.727596 31.896276-4.607809 40.241529a511.773961 511.773961 0 0 1-315.583703 64.304532C219.24287 993.486066 30.5787 804.770698 3.648617 572.43474a511.313181 511.313181 0 0 1 64.355729-315.378912z m188.817764-188.766566a510.903598 510.903598 0 0 1 315.686099-64.509323c232.28476 26.930082 420.897733 215.645451 447.827816 447.930211a511.057191 511.057191 0 0 1-64.35573 315.532506c-8.242858 14.335405-28.466019 16.38332-40.190332 4.607808l-37.988823-37.988823a25.240553 25.240553 0 0 1-4.147028-29.950757c43.825381-82.684569 60.72068-181.752457 36.86247-286.196123-34.148983-149.753785-154.259198-269.966396-304.012983-304.115379a411.630917 411.630917 0 0 0-200.798067 3.327862l49.047564 49.047564a25.598938 25.598938 0 0 1 0 36.196898l-36.196898 36.196898a25.701333 25.701333 0 0 1-36.299293 0L255.490966 111.397873l-3.276664-3.37906a25.342948 25.342948 0 0 1 4.607808-39.831947zM326.144034 318.595674c76.540824 0 134.292027 39.934343 134.855203 97.890338 0.511979 53.143395-38.910385 79.612696-67.069217 83.452537v3.788642c35.992106 2.559894 77.615979 30.616329 78.230354 89.749876 0.511979 69.577913-69.731506 111.969753-149.600192 111.969753-95.381642 0-139.7702-54.167352-140.486969-115.195219h82.223787c1.945519 26.827687 25.598938 46.487671 60.464691 46.48767 35.992106 0 58.109588-21.093525 57.802401-48.893971 0-26.520499-20.837535-47.921211-58.877556-47.921211H282.62584V473.059664h39.217572c31.3331 0 51.709854-18.738422 51.709854-44.798141-0.255989-24.114199-20.939931-42.391841-50.890688-42.391841-32.971432 0-50.941886 23.704616-51.709854 46.231682H187.141802c2.457498-66.403644 52.017041-113.50569 138.951034-113.50569z m333.96374 5.682964c117.959905 0 170.488925 70.448276 170.488925 186.206673 0 116.935947-53.962561 189.278545-170.488925 189.278545H511.992321V324.278638h148.115453z m-15.66655 73.98093h-41.470279v233.206322h41.521477c51.709854 0 89.340292-22.527065 89.340293-115.911989 0-66.557238-19.967171-117.294332-89.340293-117.294333z" p-id="24564" fill="#ffffff"></path></svg>