<?xml version="1.0" standalone="no"?><!DOCTYPE svg PUBLIC "-//W3C//DTD SVG 1.1//EN" "http://www.w3.org/Graphics/SVG/1.1/DTD/svg11.dtd"><svg t="1594172320465" class="icon" viewBox="0 0 1024 1024" version="1.1" xmlns="http://www.w3.org/2000/svg" p-id="25139" xmlns:xlink="http://www.w3.org/1999/xlink" width="32" height="32"><defs><style type="text/css"></style></defs><path d="M512 128C464.871723 128 426.666667 166.205035 426.666667 213.333333 426.666667 260.461632 464.871723 298.666667 512 298.666667 559.128277 298.666667 597.333333 260.461632 597.333333 213.333333 597.333333 166.205035 559.128277 128 512 128zM512 426.666667C464.871723 426.666667 426.666667 464.871723 426.666667 512 426.666667 559.128277 464.871723 597.333333 512 597.333333 559.128277 597.333333 597.333333 559.128277 597.333333 512 597.333333 464.871723 559.128277 426.666667 512 426.666667zM512 725.333333C464.871723 725.333333 426.666667 763.538389 426.666667 810.666667 426.666667 857.794944 464.871723 896 512 896 559.128277 896 597.333333 857.794944 597.333333 810.666667 597.333333 763.538389 559.128277 725.333333 512 725.333333z" p-id="25140" fill="#ffffff"></path></svg>