<?xml version="1.0" standalone="no"?><!DOCTYPE svg PUBLIC "-//W3C//DTD SVG 1.1//EN" "http://www.w3.org/Graphics/SVG/1.1/DTD/svg11.dtd"><svg t="1594172360569" class="icon" viewBox="0 0 1024 1024" version="1.1" xmlns="http://www.w3.org/2000/svg" p-id="25916" xmlns:xlink="http://www.w3.org/1999/xlink" width="32" height="32"><defs><style type="text/css"></style></defs><path d="M512 106.666667C215.04 106.666667 105.173333 365.44 105.173333 510.72S210.773333 917.333333 503.466667 917.333333c0 0 72.533333 1.28 72.533333-64s-32.64-44.373333-32.64-91.52 32.64-68.053333 48.426667-68.053333 119.04 7.893333 176.64-14.293333 149.333333-92.8 149.333333-213.333334C918.826667 360.32 808.96 106.666667 512 106.666667zM264.106667 512a70.613333 70.613333 0 1 1 70.613333-70.613333A70.826667 70.826667 0 0 1 264.106667 512z m133.12-174.72a70.613333 70.613333 0 1 1 70.613333-70.613333 70.613333 70.613333 0 0 1-70.613333 70.613333z m226.56 0a70.613333 70.613333 0 1 1 70.613333-70.613333 70.613333 70.613333 0 0 1-70.613333 70.613333z m134.4 174.72a70.613333 70.613333 0 1 1 70.613333-70.613333A70.613333 70.613333 0 0 1 758.186667 512z m0 0" p-id="25917" fill="#ffffff"></path></svg>