<?xml version="1.0" standalone="no"?><!DOCTYPE svg PUBLIC "-//W3C//DTD SVG 1.1//EN" "http://www.w3.org/Graphics/SVG/1.1/DTD/svg11.dtd"><svg t="1595484777722" class="icon" viewBox="0 0 1024 1024" version="1.1" xmlns="http://www.w3.org/2000/svg" p-id="2888" xmlns:xlink="http://www.w3.org/1999/xlink" width="200" height="200"><defs><style type="text/css"></style></defs><path d="M512 921.6 512 921.6C738.215834 921.6 921.6 738.215834 921.6 512 921.6 285.784166 738.215834 102.4 512 102.4 285.784166 102.4 102.4 285.784166 102.4 512 102.4 738.215834 285.784166 921.6 512 921.6L512 921.6ZM512 1024 512 1024C229.230208 1024 0 794.769792 0 512 0 229.230208 229.230208 0 512 0 794.769792 0 1024 229.230208 1024 512 1024 794.769792 794.769792 1024 512 1024L512 1024Z" p-id="2889" fill="#ffffff"></path><path d="M455.68 302.08C455.68 336.012375 483.187625 363.52 517.12 363.52 551.052375 363.52 578.56 336.012375 578.56 302.08 578.56 268.147625 551.052375 240.64 517.12 240.64 483.187625 240.64 455.68 268.147625 455.68 302.08ZM517.12 424.96C545.396979 424.96 568.32 447.924739 568.32 476.119538L568.32 732.200462C568.32 760.455095 545.339441 783.36 517.12 783.36 488.843021 783.36 465.92 760.395261 465.92 732.200462L465.92 476.119538C465.92 447.864905 488.900559 424.96 517.12 424.96Z" p-id="2890" fill="#ffffff"></path></svg>