<?xml version="1.0" standalone="no"?><!DOCTYPE svg PUBLIC "-//W3C//DTD SVG 1.1//EN" "http://www.w3.org/Graphics/SVG/1.1/DTD/svg11.dtd"><svg t="1595484842060" class="icon" viewBox="0 0 1024 1024" version="1.1" xmlns="http://www.w3.org/2000/svg" p-id="4241" xmlns:xlink="http://www.w3.org/1999/xlink" width="200" height="200"><defs><style type="text/css"></style></defs><path d="M879.9 263.1c-30.1 0-54.6-23.7-54.6-52.9 0-0.5 0.3-0.9 0.3-1.4-3.7-28-24.6-52.4-51-52.4H233.7c-29.1 0-52.7 29.3-52.7 60.7v579.3c0 31.4 23.6 56.9 52.7 56.9h540.8c29.1 0 52.7-25.5 52.7-56.9v-41.9c-0.6-3.3-2-6.2-2-9.7 0-29.7 24.1-53.7 53.7-53.7s53.7 24.1 53.7 53.7c0 2.8-1.2 5.2-1.6 7.8h2.5v124c0 53.8-40.6 85.3-85.3 85.3H159.9c-53.6 0-85.3-31.5-85.3-85.3V132.3C72.9 78.5 106.3 47 159.9 47h688.5c53.6 1.8 83.5 33.3 85.3 85.3v74.3c0.1 1.3 0.8 2.4 0.8 3.7-0.1 29.1-24.5 52.8-54.6 52.8z m-182.5 22.7c21.9-20 55.9-18.4 75.9 3.6l127.2 139.7c19.8 7.9 33.9 27.1 33.9 49.7 0 2.2-1 4.1-1.3 6.3 0.1 0.9 0.5 1.6 0.5 2.5 0 13-6.2 23.9-15.4 31.5-1.4 1.6-2.1 3.6-3.7 5.1-3 2.7-6.4 4.6-9.8 6.5L765.5 674.9c-21.2 21.9-57.2 23.5-80.4 3.6-23.2-20-24.9-54-3.8-75.9l67.6-70.1H504.5c-4 0-7.5-1.4-11.2-2.3h-0.3c-23.5 0-42.6-19.1-42.6-42.6 0-1.9 0.8-3.5 1.1-5.4-0.1-1.2-0.7-2.2-0.7-3.5 0-29.7 24.1-53.7 53.7-53.7h247l-57.7-63.3c-19.9-21.9-18.3-55.9 3.6-75.9z" p-id="4242" fill="#ffffff"></path></svg>